<?xml version="1.0" encoding="UTF-8"?>
<svg id="Layer_1" data-name="Layer 1" xmlns="http://www.w3.org/2000/svg" version="1.1" viewBox="0 0 100 100">
  <defs>
    <style>
      .cls-1 {
        fill: #000;
        stroke-width: 0px;
      }
    </style>
  </defs>
  <path class="cls-1" d="M45.4,2.5c4.7,0,9.3,0,13.9-.1,10.3,0,20.1,0,29.4,4.9,9.8,10.2,9,23.8,9,37.2-.1,5.4-.3,10.9-.4,16.3-.3,12.2-.5,24.4-.8,37H3.5c-.3-12.2-.5-24.4-.8-37-.1-3.8-.2-7.6-.3-11.6Q1.8,21.5,7.8,10.9C17.5.9,32.4,2.2,45.4,2.5ZM17.6,21.6h64.8q-4.5-8.9-11.1-9.5c-2.2,0-4.4,0-6.6,0-1.2,0-2.3,0-3.5,0-2.5,0-4.9,0-7.4,0-3.8,0-7.5,0-11.3,0-2.4,0-4.8,0-7.2,0-1.1,0-2.2,0-3.4,0-9.1.2-8.7,1.2-14.3,9.6ZM12,30.1v59.2h76.1V30.1H12Z"/>
  <path class="cls-1" d="M33.1,38.5h33.8v8.5h-33.8v-8.5Z"/>
  <path class="cls-1" d="M58.5,76.6h25.4v8.5h-25.4v-8.5Z"/>
  <path class="cls-1" d="M78.2,59.7c1.9.9,3.7,1.9,5.6,2.8v9.9h-8.5q-.2-4.8,0-9.9c.9-.9,1.9-1.9,2.8-2.8Z"/>
  <path class="cls-1" d="M61.3,59.7c1.9.9,3.7,1.9,5.6,2.8v9.9h-8.5q-.2-4.8,0-9.9c.9-.9,1.9-1.9,2.8-2.8Z"/>
</svg>